<?xml version="1.0" encoding="UTF-8"?>
<svg xmlns="http://www.w3.org/2000/svg" xmlns:xlink="http://www.w3.org/1999/xlink" width="156.25pt" height="312.5pt" viewBox="0 0 156.25 312.5" version="1.1">
<g id="surface1">
<path style=" stroke:none;fill-rule:nonzero;fill:rgb(12.941177%,12.941177%,12.941177%);fill-opacity:1;" d="M 0 0 L 200 0 L 200 100 L 0 100 Z M 0 0 "/>
<path style=" stroke:none;fill-rule:nonzero;fill:rgb(100%,100%,100%);fill-opacity:1;" d="M 18.953125 21.21875 L 18.953125 35.453125 L 21.109375 35.453125 C 23.566406 35.453125 25.441406 34.84375 26.734375 33.625 C 28.035156 32.40625 28.6875 30.636719 28.6875 28.3125 C 28.6875 26 28.039062 24.242188 26.75 23.03125 C 25.457031 21.824219 23.578125 21.21875 21.109375 21.21875 Z M 12.9375 16.671875 L 19.28125 16.671875 C 22.820312 16.671875 25.457031 16.929688 27.1875 17.4375 C 28.925781 17.9375 30.414062 18.792969 31.65625 20 C 32.75 21.054688 33.5625 22.265625 34.09375 23.640625 C 34.625 25.015625 34.890625 26.574219 34.890625 28.3125 C 34.890625 30.074219 34.625 31.648438 34.09375 33.03125 C 33.5625 34.40625 32.75 35.621094 31.65625 36.671875 C 30.40625 37.882812 28.90625 38.742188 27.15625 39.25 C 25.40625 39.75 22.78125 40 19.28125 40 L 12.9375 40 Z M 53.65625 35.75 L 44.25 35.75 L 42.765625 40 L 36.71875 40 L 45.359375 16.671875 L 52.53125 16.671875 L 61.171875 40 L 55.125 40 Z M 45.75 31.421875 L 52.140625 31.421875 L 48.953125 22.140625 Z M 59.3125 16.671875 L 65.359375 16.671875 L 71.546875 33.890625 L 77.71875 16.671875 L 83.765625 16.671875 L 75.125 40 L 67.953125 40 Z M 86.859375 16.671875 L 92.875 16.671875 L 92.875 40 L 86.859375 40 Z M 104.78125 21.21875 L 104.78125 35.453125 L 106.9375 35.453125 C 109.394531 35.453125 111.269531 34.84375 112.5625 33.625 C 113.863281 32.40625 114.515625 30.636719 114.515625 28.3125 C 114.515625 26 113.867188 24.242188 112.578125 23.03125 C 111.285156 21.824219 109.40625 21.21875 106.9375 21.21875 Z M 98.765625 16.671875 L 105.109375 16.671875 C 108.648438 16.671875 111.285156 16.929688 113.015625 17.4375 C 114.753906 17.9375 116.242188 18.792969 117.484375 20 C 118.578125 21.054688 119.390625 22.265625 119.921875 23.640625 C 120.453125 25.015625 120.71875 26.574219 120.71875 28.3125 C 120.71875 30.074219 120.453125 31.648438 119.921875 33.03125 C 119.390625 34.40625 118.578125 35.621094 117.484375 36.671875 C 116.234375 37.882812 114.734375 38.742188 112.984375 39.25 C 111.234375 39.75 108.609375 40 105.109375 40 L 98.765625 40 Z M 10 10.296875 "/>
<path style=" stroke:none;fill-rule:nonzero;fill:rgb(100%,100%,100%);fill-opacity:1;" d="M 27.09375 75.75 L 17.6875 75.75 L 16.203125 80 L 10.15625 80 L 18.796875 56.671875 L 25.96875 56.671875 L 34.609375 80 L 28.5625 80 Z M 19.1875 71.421875 L 25.578125 71.421875 L 22.390625 62.140625 Z M 46.25 67.015625 C 47.507812 67.015625 48.410156 66.78125 48.953125 66.3125 C 49.503906 65.84375 49.78125 65.074219 49.78125 64 C 49.78125 62.9375 49.503906 62.179688 48.953125 61.71875 C 48.410156 61.261719 47.507812 61.03125 46.25 61.03125 L 43.71875 61.03125 L 43.71875 67.015625 Z M 43.71875 71.171875 L 43.71875 80 L 37.703125 80 L 37.703125 56.671875 L 46.890625 56.671875 C 49.960938 56.671875 52.210938 57.1875 53.640625 58.21875 C 55.078125 59.25 55.796875 60.882812 55.796875 63.109375 C 55.796875 64.652344 55.421875 65.917969 54.671875 66.90625 C 53.929688 67.898438 52.8125 68.625 51.3125 69.09375 C 52.132812 69.28125 52.867188 69.710938 53.515625 70.375 C 54.171875 71.03125 54.832031 72.03125 55.5 73.375 L 58.765625 80 L 52.359375 80 L 49.515625 74.203125 C 48.941406 73.039062 48.359375 72.242188 47.765625 71.8125 C 47.179688 71.386719 46.398438 71.171875 45.421875 71.171875 Z M 76.5 75.75 L 67.09375 75.75 L 65.609375 80 L 59.5625 80 L 68.203125 56.671875 L 75.375 56.671875 L 84.015625 80 L 77.96875 80 Z M 68.59375 71.421875 L 74.984375 71.421875 L 71.796875 62.140625 Z M 86.125 56.671875 L 92.140625 56.671875 L 92.140625 70.65625 C 92.140625 72.585938 92.453125 73.964844 93.078125 74.796875 C 93.710938 75.621094 94.742188 76.03125 96.171875 76.03125 C 97.609375 76.03125 98.640625 75.621094 99.265625 74.796875 C 99.898438 73.964844 100.21875 72.585938 100.21875 70.65625 L 100.21875 56.671875 L 106.234375 56.671875 L 106.234375 70.65625 C 106.234375 73.960938 105.40625 76.417969 103.75 78.03125 C 102.09375 79.648438 99.566406 80.453125 96.171875 80.453125 C 92.785156 80.453125 90.265625 79.648438 88.609375 78.03125 C 86.953125 76.417969 86.125 73.960938 86.125 70.65625 Z M 96.59375 50.328125 L 101.015625 50.328125 L 96.5625 54.453125 L 93.5 54.453125 Z M 112.109375 56.671875 L 118.125 56.671875 L 118.125 77.734375 C 118.125 80.640625 117.332031 82.8125 115.75 84.25 C 114.175781 85.6875 111.789062 86.40625 108.59375 86.40625 L 107.375 86.40625 L 107.375 81.859375 L 108.3125 81.859375 C 109.5625 81.859375 110.503906 81.507812 111.140625 80.8125 C 111.785156 80.113281 112.109375 79.089844 112.109375 77.734375 Z M 134.671875 60.609375 C 132.835938 60.609375 131.414062 61.289062 130.40625 62.640625 C 129.394531 63.996094 128.890625 65.902344 128.890625 68.359375 C 128.890625 70.808594 129.394531 72.710938 130.40625 74.0625 C 131.414062 75.417969 132.835938 76.09375 134.671875 76.09375 C 136.515625 76.09375 137.941406 75.417969 138.953125 74.0625 C 139.960938 72.710938 140.46875 70.808594 140.46875 68.359375 C 140.46875 65.902344 139.960938 63.996094 138.953125 62.640625 C 137.941406 61.289062 136.515625 60.609375 134.671875 60.609375 Z M 134.671875 56.25 C 138.421875 56.25 141.359375 57.324219 143.484375 59.46875 C 145.609375 61.617188 146.671875 64.578125 146.671875 68.359375 C 146.671875 72.132812 145.609375 75.089844 143.484375 77.234375 C 141.359375 79.382812 138.421875 80.453125 134.671875 80.453125 C 130.929688 80.453125 127.992188 79.382812 125.859375 77.234375 C 123.734375 75.089844 122.671875 72.132812 122.671875 68.359375 C 122.671875 64.578125 123.734375 61.617188 125.859375 59.46875 C 127.992188 57.324219 130.929688 56.25 134.671875 56.25 Z M 10 50.296875 "/>
</g>
</svg>
